# xmcd
#
# Track frame offsets:
#	150
#	14703
#	27283
#	41358
#	53840
#	66562
#	79543
#	93296
#	106017
#	118716
#	132733
#	144085
#	157843
#	169527
#	182286
#	196474
#	209623
#	222676
#
# Disc length: 3138 seconds
# Revision: 2
# Processed by: cddbd v1.5.2PL0 Copyright (c) Steve Scherf et al.
# Submitted via: dBpowerAMP V12.0
#
DISCID=f90c4012
DTITLE=Various Artist - The Aristocrat Blues Story CD2
DYEAR=2014
DGENRE=Blues
TTITLE0=Robert Nighthawk w Robert McCullum - Annie Lee Blues
TTITLE1=Clarence Samuels - Lollipop Mama
TTITLE2=Muddy Waters - Screamin' and Cryin'
TTITLE3=Sunnyland Slim - She Ain't Nowhere
TTITLE4=Forest City Joe - A Woman on Every Street
TTITLE5=Tom Archia - Drinkin' Blues
TTITLE6=St. Louis Jimmy - So Nice and Kind
TTITLE7=Duke Jenkins' Aristocrats - Baby I'm Sick of You
TTITLE8=Leroy Foster - Shady Grove Blues
TTITLE9=the Dozier Boys - She's Gone
TTITLE10=Andrew Tibbs w Tom Archia - Married Man Blues
TTITLE11=Robert Nighthawk w Robert McCullum - Black Angel Blues
TTITLE12=Sunnyland Slim - Fly Right Little Girl
TTITLE13=Forrest Sykes - Tonky Boogie
TTITLE14=Tom Archia w Sheba Griffin - Cherry
TTITLE15=Little Johnny Jones - Big Town Playboy
TTITLE16=Andrew Tibbs - Bilbo Is Dead
TTITLE17=Muddy Waters - I Can't Be Satisfied
EXTD=
EXTT0=
EXTT1=
EXTT2=
EXTT3=
EXTT4=
EXTT5=
EXTT6=
EXTT7=
EXTT8=
EXTT9=
EXTT10=
EXTT11=
EXTT12=
EXTT13=
EXTT14=
EXTT15=
EXTT16=
EXTT17=
PLAYORDER=
